<?xml version="1.0" standalone="no"?>
<!DOCTYPE svg PUBLIC "-//W3C//DTD SVG 20010904//EN"
 "http://www.w3.org/TR/2001/REC-SVG-20010904/DTD/svg10.dtd">
<svg version="1.0" xmlns="http://www.w3.org/2000/svg"
 width="256.000000pt" height="256.000000pt" viewBox="0 0 256.000000 256.000000"
 preserveAspectRatio="xMidYMid meet">

<g transform="translate(0.000000,256.000000) scale(0.100000,-0.100000)"
fill="#000000" stroke="none">
<path d="M1688 2527 c-90 -55 -140 -186 -117 -311 27 -153 140 -210 238 -120
62 55 86 121 86 234 0 80 -4 102 -23 138 -42 78 -114 102 -184 59z"/>
<path d="M1311 2455 c-87 -79 -95 -233 -16 -312 91 -91 225 11 225 171 0 151
-114 227 -209 141z"/>
<path d="M1034 2355 c-29 -20 -54 -76 -54 -120 0 -108 105 -174 174 -110 65
60 61 182 -6 229 -28 20 -87 21 -114 1z"/>
<path d="M848 2190 c-70 -54 -24 -200 63 -200 36 0 69 41 69 87 0 46 -32 106
-65 121 -34 16 -38 15 -67 -8z"/>
<path d="M685 2025 c-50 -49 -20 -165 47 -189 90 -32 128 115 48 187 -38 33
-64 34 -95 2z"/>
<path d="M1313 1925 c-166 -30 -307 -98 -404 -195 -108 -108 -156 -242 -146
-410 10 -154 31 -223 161 -522 59 -134 84 -234 92 -357 7 -123 20 -183 55
-251 34 -68 89 -122 154 -152 39 -18 67 -23 130 -22 120 0 187 25 255 93 77
78 95 131 95 281 0 111 -1 117 -36 190 -20 41 -64 109 -98 150 -91 111 -124
183 -124 274 0 112 29 164 172 311 128 131 156 176 174 280 27 161 -51 294
-195 332 -64 16 -189 16 -285 -2z"/>
</g>
</svg>
